<svg width="20" height="20" viewBox="0 0 20 20" fill="none" xmlns="http://www.w3.org/2000/svg">
<g clip-path="url(#clip0_212_21581)">
<path d="M9.99984 18.3327C14.6022 18.3327 18.3332 14.6017 18.3332 9.99935C18.3332 5.39698 14.6022 1.66602 9.99984 1.66602C5.39746 1.66602 1.6665 5.39698 1.6665 9.99935C1.6665 14.6017 5.39746 18.3327 9.99984 18.3327Z" stroke="#737373" stroke-width="1.66667" stroke-linecap="round" stroke-linejoin="round"/>
<path d="M10 10.834C11.3807 10.834 12.5 9.7147 12.5 8.33398C12.5 6.95327 11.3807 5.83398 10 5.83398C8.61929 5.83398 7.5 6.95327 7.5 8.33398C7.5 9.7147 8.61929 10.834 10 10.834Z" stroke="#737373" stroke-width="1.66667" stroke-linecap="round" stroke-linejoin="round"/>
<path d="M5.8335 17.2177V15.8327C5.8335 15.3907 6.00909 14.9667 6.32165 14.6542C6.63421 14.3416 7.05814 14.166 7.50016 14.166H12.5002C12.9422 14.166 13.3661 14.3416 13.6787 14.6542C13.9912 14.9667 14.1668 15.3907 14.1668 15.8327V17.2177" stroke="#737373" stroke-width="1.66667" stroke-linecap="round" stroke-linejoin="round"/>
</g>
<defs>
<clipPath id="clip0_212_21581">
<rect width="20" height="20" fill="white"/>
</clipPath>
</defs>
</svg>
