<svg width="20" height="20" viewBox="0 0 20 20" fill="none" xmlns="http://www.w3.org/2000/svg">
<path d="M13.3332 16.666V3.33268C13.3332 2.89065 13.1576 2.46673 12.845 2.15417C12.5325 1.84161 12.1085 1.66602 11.6665 1.66602H8.33317C7.89114 1.66602 7.46722 1.84161 7.15466 2.15417C6.8421 2.46673 6.6665 2.89065 6.6665 3.33268V16.666" stroke="#737373" stroke-width="1.66667" stroke-linecap="round" stroke-linejoin="round"/>
<path d="M16.6665 5H3.33317C2.4127 5 1.6665 5.74619 1.6665 6.66667V15C1.6665 15.9205 2.4127 16.6667 3.33317 16.6667H16.6665C17.587 16.6667 18.3332 15.9205 18.3332 15V6.66667C18.3332 5.74619 17.587 5 16.6665 5Z" stroke="#737373" stroke-width="1.66667" stroke-linecap="round" stroke-linejoin="round"/>
</svg>
