<svg width="19" height="17" viewBox="0 0 19 17" fill="none" xmlns="http://www.w3.org/2000/svg">
<path d="M12.4167 15.75V14.0833C12.4167 13.1993 12.0655 12.3514 11.4404 11.7263C10.8152 11.1012 9.96739 10.75 9.08333 10.75H4.08333C3.19928 10.75 2.35143 11.1012 1.72631 11.7263C1.10119 12.3514 0.75 13.1993 0.75 14.0833V15.75M17.4167 15.7499V14.0832C17.4161 13.3447 17.1703 12.6272 16.7178 12.0435C16.2653 11.4598 15.6318 11.0429 14.9167 10.8582M12.4167 0.858236C13.1337 1.04182 13.7692 1.45882 14.223 2.04349C14.6769 2.62817 14.9232 3.34726 14.9232 4.0874C14.9232 4.82754 14.6769 5.54664 14.223 6.13131C13.7692 6.71598 13.1337 7.13298 12.4167 7.31657M9.91667 4.08333C9.91667 5.92428 8.42428 7.41667 6.58333 7.41667C4.74238 7.41667 3.25 5.92428 3.25 4.08333C3.25 2.24238 4.74238 0.75 6.58333 0.75C8.42428 0.75 9.91667 2.24238 9.91667 4.08333Z" stroke="#737373" stroke-width="1.5" stroke-linecap="round" stroke-linejoin="round"/>
</svg>
